<svg class="prefix__h-8 prefix__hover:text-gray-900 prefix__dark:hover:text-white" fill="currentColor" xmlns="http://www.w3.org/2000/svg" width="151" height="34"><g clip-path="url(#prefix__clip0_3753_27919)" fill="#6B7280"><path d="M150.059 16.114v-2.639h-3.276V9.374l-.11.035-3.077.937h-.058v3.106h-4.856v-1.735c0-.796.187-1.417.539-1.828.351-.41.867-.615 1.5-.615.468 0 .961.117 1.429.328l.118.047V6.882l-.047-.023c-.446-.158-1.055-.24-1.805-.24-.949 0-1.816.21-2.578.625a4.241 4.241 0 00-1.77 1.747c-.422.75-.632 1.617-.632 2.566v1.898h-2.274v2.637h2.285v11.11h3.27v-11.11h4.86v7.055c0 2.906 1.366 4.383 4.078 4.383.445 0 .914-.057 1.383-.153.486-.105.82-.21 1.007-.316l.047-.024v-2.66l-.132.09c-.176.117-.399.219-.656.289-.258.07-.481.117-.647.117-.633 0-1.102-.164-1.39-.5-.298-.334-.446-.926-.446-1.758v-6.492h3.258l-.007-.017-.013.008zm-24.246 8.766c-1.187 0-2.124-.395-2.789-1.172-.66-.78-.996-1.891-.996-3.304 0-1.458.336-2.602 1-3.394.661-.788 1.589-1.189 2.761-1.189 1.136 0 2.027.382 2.683 1.137.657.76.985 1.892.985 3.366 0 1.493-.305 2.64-.914 3.406-.61.762-1.524 1.149-2.719 1.149l-.011.001zm.151-11.735c-2.261 0-4.064.663-5.348 1.973-1.277 1.313-1.931 3.124-1.931 5.39 0 2.157.633 3.886 1.89 5.146 1.254 1.265 2.961 1.921 5.071 1.921 2.193 0 3.961-.68 5.24-1.998 1.289-1.326 1.929-3.124 1.929-5.335 0-2.187-.609-3.933-1.816-5.18-1.207-1.258-2.899-1.894-5.039-1.894l.004-.023zm-12.567.023c-1.547 0-2.817.394-3.797 1.172-.975.783-1.476 1.805-1.476 3.047 0 .65.11 1.219.323 1.711.211.485.539.914.978 1.275.433.352 1.101.727 1.992 1.11.75.306 1.301.563 1.657.774.351.196.6.399.726.595.141.187.211.456.211.773 0 .93-.689 1.378-2.109 1.378-.53 0-1.132-.11-1.791-.328a6.621 6.621 0 01-1.836-.928l-.141-.094v3.14l.047.024a8.297 8.297 0 001.735.54 8.65 8.65 0 001.851.222c1.676 0 3.024-.399 4.008-1.177.984-.787 1.488-1.84 1.488-3.122 0-.925-.269-1.722-.802-2.36-.528-.64-1.442-1.224-2.723-1.74-1.011-.41-1.664-.75-1.945-1.008-.258-.253-.379-.61-.379-1.06 0-.398.165-.719.498-.976.336-.264.804-.395 1.39-.395.545 0 1.102.082 1.664.252a5.45 5.45 0 011.442.675l.137.093v-3l-.047-.023c-.381-.164-.875-.301-1.477-.41a8.695 8.695 0 00-1.611-.164l-.013.004zM99.582 24.894c-1.184 0-2.121-.391-2.777-1.172-.668-.773-1.002-1.887-1.002-3.305 0-1.453.335-2.601 1-3.39.657-.787 1.587-1.188 2.754-1.188 1.137 0 2.039.382 2.69 1.137.647.762.984 1.893.984 3.368 0 1.49-.316 2.636-.926 3.404-.597.762-1.511 1.148-2.718 1.148l-.005-.002zm.169-11.728c-2.274 0-4.078.66-5.356 1.971-1.285 1.313-1.933 3.123-1.933 5.39 0 2.157.632 3.884 1.878 5.145 1.257 1.266 2.96 1.922 5.069 1.922 2.203 0 3.961-.68 5.25-2.004 1.282-1.329 1.933-3.126 1.933-5.338 0-2.188-.609-3.934-1.805-5.18-1.207-1.26-2.901-1.894-5.039-1.894l.003-.012zm-12.235 2.716v-2.39h-3.234v13.746h3.234v-7.031c0-1.196.27-2.18.805-2.924.528-.74 1.231-1.102 2.086-1.102.293 0 .621.047.983.14.351.095.604.188.75.305l.14.094v-3.257l-.052-.024c-.304-.136-.726-.201-1.265-.201-.809 0-1.535.262-2.159.773-.55.455-.945 1.073-1.248 1.847h-.058l.029.023-.01.001zm-9.047-2.718c-1.488 0-2.812.31-3.937.937a6.368 6.368 0 00-2.602 2.672c-.586 1.137-.89 2.467-.89 3.95 0 1.3.295 2.488.867 3.54a6.13 6.13 0 002.426 2.45c1.024.566 2.215.855 3.532.855 1.537 0 2.848-.304 3.902-.914l.047-.023v-2.967l-.14.097a5.934 5.934 0 01-1.583.826c-.572.2-1.092.3-1.546.3-1.273 0-2.29-.398-3.03-1.178-.75-.797-1.126-1.898-1.126-3.28 0-1.407.398-2.532 1.167-3.352.774-.844 1.79-1.266 3.035-1.266 1.055 0 2.095.363 3.074 1.066l.14.094v-3.117l-.038-.024c-.369-.21-.87-.375-1.5-.508a8.838 8.838 0 00-1.802-.192l.004.034zm-9.649.294h-3.23v13.758h3.235V13.458h-.005zM67.227 7.61c-.532 0-.996.18-1.379.54-.382.36-.576.812-.576 1.347 0 .527.196.973.574 1.324.375.352.844.525 1.383.525s1.008-.176 1.389-.527c.384-.352.579-.797.579-1.325 0-.515-.188-.96-.563-1.335-.375-.352-.844-.54-1.406-.54l-.001-.009zm-8.074 4.85v14.765h3.305V8.055h-4.57l-5.793 14.247-5.636-14.25h-4.751v19.186h3.105v-14.76h.106l5.953 14.763h2.338l5.86-14.762h.11l-.017-.007-.01-.013zm-42.269 5.964h15.21v15.224H16.86l.022-15.213.002-.01zm-16.801.01H15.29v15.214H.078l.005-15.213v-.002zM16.885 1.631h15.211v15.211h-15.22l.01-15.215v.004zM.083 1.63H15.29v15.213H.078L.083 1.628v.002z"/></g><defs><clipPath id="prefix__clip0_3753_27919"><path fill="#fff" transform="translate(.082 .835)" d="M0 0h150v32.813H0z"/></clipPath></defs></svg>